<?xml version="1.0" encoding="UTF-8" standalone="no"?>
<!DOCTYPE svg PUBLIC "-//W3C//DTD SVG 1.1//EN" "http://www.w3.org/Graphics/SVG/1.1/DTD/svg11.dtd">
<svg width="100%" height="100%" viewBox="0 0 1080 1080" version="1.1" xmlns="http://www.w3.org/2000/svg" xmlns:xlink="http://www.w3.org/1999/xlink" xml:space="preserve" xmlns:serif="http://www.serif.com/" style="fill-rule:evenodd;clip-rule:evenodd;stroke-linecap:round;stroke-linejoin:round;stroke-miterlimit:1.5;">
    <g transform="matrix(1,0,0,1,-1192.53,0)">
        <g id="monster" transform="matrix(1,0,0,1,12.5348,0)">
            <rect x="1180" y="0" width="1080" height="1080" style="fill:none;"/>
            <g>
                <path d="M1235.65,231.651C1246.87,259.785 1259.31,274.487 1272.84,277.175C1261.47,247.178 1271.36,223.896 1303.93,207.778C1288.19,238.521 1287.56,258.276 1297.27,270.513C1305.33,233.834 1321.69,217.438 1350.57,231.651C1324.7,240.73 1314.07,258.191 1334.47,292.72C1346.7,286.343 1350.58,276.903 1353.55,258.959C1366.93,270.089 1374.21,299.253 1350.57,326.586C1350.57,326.586 1382.77,493.024 1404.98,497.025C1425.36,500.698 1579.3,426.518 1579.3,426.518C1579.3,426.518 1585.04,250.758 1603.73,188.625C1619.18,137.259 1655.58,90.38 1693.11,50.386C1688.63,70.542 1693.34,90.374 1693.67,109.234C1750.74,121.832 1797.41,125.548 1839.68,126.302C1850,108.175 1856.74,89.795 1859.66,64.265C1889.24,103.931 1903.99,143.222 1907.41,188.625C1912.19,252.034 1884.23,444.284 1880.21,444.284C1921.51,510.39 1988.2,579.473 2029.67,574.476C2071.15,569.48 2109.1,473.457 2129.05,414.304C2115.85,406.395 2100.42,407.407 2083.53,414.304C2096.02,399.414 2111,391.997 2129.05,393.762C2120.26,381.267 2105.26,374.983 2083.53,375.441C2098.52,357.893 2116.64,355.978 2139.04,375.441L2118.5,338.245C2154.49,332.613 2175.61,348.312 2169.02,403.755C2179.64,399.753 2193.01,398.501 2212.88,403.755L2156.25,463.715C2115.23,515.892 2089.91,587.519 2062.98,615.278C2046.76,632.005 2016.62,638.163 1994.7,630.268C1958.98,617.406 1848.68,538.108 1848.68,538.108C1828.61,658.495 1833.47,773.896 1859.66,885.03C1903.34,910.591 1937.51,935.227 1952.5,963.102L1892.34,944.95L1927.04,992.14L1867.36,963.102L1892.34,1029.61C1858.54,1000.82 1819.73,975.599 1772.98,956.053C1790.92,932.391 1800.05,892.644 1791.71,861.673C1780.84,821.307 1746.85,750.163 1707.74,713.858C1674.64,737.187 1645.27,783.602 1627.93,814.483C1613.57,840.079 1607.26,875.822 1606.1,897.566C1605.24,913.859 1623.6,951.022 1623.6,951.022C1592.23,971.106 1563.07,994.725 1539.11,1029.61L1547.43,979.648L1492.61,1010.88L1516.9,963.102L1441.43,971.776C1466.36,955.614 1487.34,931.502 1516.9,917.191C1516.9,917.191 1562.51,805.578 1571.72,746.548C1582.12,679.927 1586.78,595.827 1579.3,517.464C1579.3,517.464 1441.15,557.54 1404.98,555.979C1383.6,555.056 1371.25,527.498 1362.23,508.095C1346.64,474.553 1311.43,354.727 1311.43,354.727C1311.43,354.727 1248.28,313.233 1235.65,292.72C1224.97,275.387 1223.6,252.007 1235.65,231.651ZM1650.49,294.645L1665.24,362.307L1695.6,292.042L1722.49,353.632L1756.33,292.042L1771.07,347.56L1808.37,298.982L1827.46,360.572L1855.22,315.464C1856.9,356.049 1847.83,396.069 1821.38,435.174L1796.23,370.982L1760.66,436.909L1745.91,372.717L1709.48,432.572L1696.47,370.114L1654.83,431.704C1631.55,384.458 1632.32,338.93 1650.49,294.645ZM1801.29,258.142C1833.06,229.438 1859.9,201.799 1866.49,177.537C1871.58,197.246 1875.78,217.313 1873.43,239.995C1855.24,261.06 1823.93,266.687 1801.29,258.142ZM1703.41,254.741C1666.95,262.16 1640.2,248.11 1624.47,209.633C1630.68,190.642 1639.84,173.616 1650.49,157.586C1661,199.244 1678.1,232.329 1703.41,254.741Z" style="fill:none;stroke:black;stroke-width:18.02px;"/>
            </g>
        </g>
    </g>
</svg>
