<?xml version="1.0" encoding="UTF-8" standalone="no"?>
<!DOCTYPE svg PUBLIC "-//W3C//DTD SVG 1.1//EN" "http://www.w3.org/Graphics/SVG/1.1/DTD/svg11.dtd">
<svg width="100%" height="100%" viewBox="0 0 1080 1080" version="1.1" xmlns="http://www.w3.org/2000/svg" xmlns:xlink="http://www.w3.org/1999/xlink" xml:space="preserve" xmlns:serif="http://www.serif.com/" style="fill-rule:evenodd;clip-rule:evenodd;stroke-linecap:round;stroke-linejoin:round;stroke-miterlimit:1.5;">
    <g transform="matrix(1,0,0,1,-12.5348,0)">
        <g id="avatar" transform="matrix(1,0,0,1,12.5348,0)">
            <rect x="0" y="0" width="1080" height="1080" style="fill:none;"/>
            <g id="avatar1" serif:id="avatar">
                <path d="M509.498,583.7C533.227,594.924 544.292,594.071 569.748,583.7C559.21,581.253 548.973,579.236 539.299,583.7C529.366,579.766 519.432,579.86 509.498,583.7Z" style="fill:none;stroke:black;stroke-width:18.02px;"/>
                <path d="M441.558,667.703L456.742,643.662" style="fill:none;stroke:black;stroke-width:18.02px;"/>
                <path d="M633.887,670.233L626.928,641.764" style="fill:none;stroke:black;stroke-width:18.02px;"/>
                <path d="M399.17,573.753C379.095,578.022 396.238,636.96 389.048,634.488C369.925,627.913 349.867,573.361 356.149,554.14C359.708,543.251 328.575,572.311 325.149,554.14C323.861,547.309 351.735,534.98 340.333,519.976C310.199,480.327 299.983,399.443 319.455,360.546C324.359,350.751 271.051,364.74 278.332,363.077C283.462,361.905 312.791,338.197 313.128,310.25C313.405,287.293 311.287,236.451 335.904,229.269C363.571,221.198 390.8,197.588 409.925,166.003C427.545,136.904 484.474,139.115 506.09,136.268C518.526,134.63 529.814,148.394 539.621,148.921C549.234,149.438 555.342,134.099 564.927,135.003C585.067,136.901 658.486,146.341 660.459,160.309C665.977,199.392 740.559,232.027 736.378,231.8C715.683,230.675 701.163,272.686 745.235,285.576C757.351,289.119 777.55,320.225 776.236,342.515C775.804,349.838 754.626,351.129 757.889,357.699C773.367,388.873 762.732,489.245 730.684,515.232C715.434,527.597 741.575,546.484 745.868,548.763C758.759,555.605 715.058,554.883 715.5,556.354C722.398,579.321 691.499,641.422 676.908,636.702C669.121,634.184 693.511,578.692 673.112,574.069" style="fill:none;stroke:black;stroke-width:18.02px;"/>
                <path d="M399.803,364.658C392.502,368.452 400.762,381.26 399.17,389.332C396.218,404.305 384.197,438.258 382.088,454.496C380.69,465.262 384.76,484.906 386.517,495.619C390.84,521.98 396.573,566.801 415.619,601.273C441.137,647.458 496.811,669.706 535.825,672.764C574.839,675.822 624.292,647.141 649.704,619.62C675.115,592.1 681.969,536.953 688.296,507.64C692.79,486.818 697.707,462.525 687.663,443.741C673.85,417.907 649.704,371.618 608.581,353.903C597.944,349.321 617.438,325.328 611.744,318.474C606.05,311.62 573.251,297.967 571.254,311.515C563.913,361.318 502.557,422.495 506.722,394.393C509.049,378.699 510.202,319.529 499.13,310.882C488.059,302.236 448.263,327.807 440.293,342.515C428.694,363.92 455.266,393.866 448.518,397.557C441.769,401.247 410.558,359.07 399.803,364.658Z" style="fill:none;stroke:black;stroke-width:18.02px;"/>
                <path d="M507.988,426.659C478.464,410.818 448.939,406.65 419.415,412.741" style="fill:none;stroke:black;stroke-width:18.02px;"/>
                <path d="M572.519,425.394C597.85,411.563 623.95,406.958 650.969,413.373" style="fill:none;stroke:black;stroke-width:18.02px;"/>
                <path d="M585.172,450.068C603.753,443.135 621.422,443.504 638.316,450.068" style="fill:none;stroke:black;stroke-width:18.02px;"/>
                <path d="M490.906,450.068C472.991,440.247 456.099,442.596 436.497,451.333" style="fill:none;stroke:black;stroke-width:18.02px;"/>
                <path d="M508.312,523.456C509.155,527.463 507.674,531.071 511.166,533.209C516.333,536.373 539.636,542.436 539.636,542.436C539.636,542.436 562.095,536.373 567.473,532.577C571.78,529.536 569.778,526.017 571.254,520.956" style="fill:none;stroke:black;stroke-width:18.02px;"/>
                <path d="M309.914,696.277C325.166,725.354 412.471,738.183 455.426,751.951C495.77,764.882 529.502,773.002 563.611,790.543C576.413,797.127 603.469,792.23 606.632,786.747C609.795,781.264 591.139,765.612 580.566,759.264C573.454,754.994 541.054,760.218 527.221,746.51C507.566,727.032 456.586,673.606 428.222,660.215C405.617,649.543 374.547,668.931 354.201,672.236C336.514,675.109 302.112,681.402 309.914,696.277Z" style="fill:none;stroke:black;stroke-width:18.02px;"/>
                <path d="M131.455,897.739C131.455,897.739 156.761,824.72 171.787,799.677C184.161,779.053 190.767,765.672 220.027,751.437C249.288,737.202 324.416,745.11 317.299,745.11C310.181,745.11 463.601,754.6 473.091,758.554C482.581,762.508 557.496,788.303 567.99,789.396C605.95,793.351 666.053,771.998 730.9,768.835C795.748,765.672 874.831,781.488 893.02,788.606C911.209,795.723 948.377,897.739 948.377,897.739C684.511,988.482 412.192,988.36 131.455,897.739Z" style="fill:none;stroke:black;stroke-width:18.02px;"/>
                <path d="M191.494,771.084C191.494,771.084 243.752,712.686 307.809,696.87" style="fill:none;stroke:black;stroke-width:18.02px;"/>
                <path d="M897.28,791.6C897.28,791.6 877.994,746.692 795.748,707.941" style="fill:none;stroke:black;stroke-width:18.02px;"/>
                <path d="M523.754,744.359C523.754,744.359 557.917,731.706 580.693,715.257C603.469,698.807 637,660.848 651.551,656.419C666.102,651.99 706.791,660.958 717.348,665.276C731.266,670.97 749.761,673.224 758.471,676.664C767.959,680.412 790.736,696.909 790.736,703.869C790.736,710.828 699.001,717.787 646.49,738.665C593.979,759.543 614.224,751.318 586.387,757.645C558.55,763.971 525.652,750.685 523.754,744.359Z" style="fill:none;stroke:black;stroke-width:18.02px;"/>
            </g>
        </g>
    </g>
</svg>
